<?xml version="1.0" standalone="no"?>
<!DOCTYPE svg PUBLIC "-//W3C//DTD SVG 20010904//EN"
 "http://www.w3.org/TR/2001/REC-SVG-20010904/DTD/svg10.dtd">
<svg version="1.0" xmlns="http://www.w3.org/2000/svg"
 width="512.000000pt" height="512.000000pt" viewBox="0 0 512.000000 512.000000"
 preserveAspectRatio="xMidYMid meet">

<g transform="translate(0.000000,512.000000) scale(0.100000,-0.100000)"
fill="#000000" stroke="none">
<path d="M318 3564 c-61 -32 -58 14 -58 -1004 0 -1022 -3 -972 60 -1005 26
-13 283 -15 2240 -15 1957 0 2214 2 2240 15 63 33 60 -17 60 1005 0 1022 3
972 -60 1005 -26 13 -283 15 -2242 15 -1938 -1 -2216 -3 -2240 -16z m4292
-1004 l0 -770 -2050 0 -2050 0 0 770 0 770 2050 0 2050 0 0 -770z"/>
<path d="M3667 2732 c-10 -10 -17 -32 -17 -47 0 -24 25 -54 143 -172 120 -121
147 -143 173 -143 25 0 52 23 177 148 154 156 165 174 127 212 -19 19 -33 20
-303 20 -262 0 -285 -1 -300 -18z"/>
</g>
</svg>
