<svg xmlns="http://www.w3.org/2000/svg" enable-background="new 0 0 90 59" viewBox="0 0 90 59" height="24px">
<path d="m87.6 52c0 2.1-1.7 3.7-3.7 3.7h-80.2c-2 .1-3.7-1.6-3.7-3.7v-48.3c0-2 1.7-3.7 3.7-3.7h80.1c2.1 0 3.7 1.7 3.7 3.7v48.3z" fill="#00baff"/><path d="m86.8 1.4c-10.4 16.1-26.5 30.9-43.1 30.5-6.1-.1-13.1-1.9-19-6.7-4.4-3.6-8.8-9.2-10.5-17.2-.7 0-1.2 0-1.8 0-2.7 0-4.3 2.4-4 4.6.1.5.2 1.1.3 1.7 1.3 7.8 5.9 16.6 13.6 22.3 6 4.4 13.4 7.3 21.5 7.3 14.6 0 30.2-9.3 43.8-33.2v-7c0-.8-.3-1.7-.8-2.3z" fill="#fff"/></svg>