<svg
  xmlns="http://www.w3.org/2000/svg"
  width="24"
  height="24"
  version="1"
  viewBox="0 0 200 200"
>
    <path
        d="M784 1976c-89-29-165-72-262-149-231-183-430-458-477-659-17-71-17-77-1-126 13-38 29-62 61-87l42-35-5-88c-4-74-1-96 16-134 41-93 150-178 228-178 30 0 36-5 66-62 20-40 65-95 118-149 73-73 100-94 180-132 113-54 195-75 321-83 358-23 670 184 744 493 24 98 16 149-27 188-47 42-60 85-41 135 37 94-22 174-162 215l-40 12-6 104c-6 109-31 190-70 225-18 16-17 18 26 73 70 90 98 160 93 237-5 73-26 104-93 135-76 35-232 21-358-33l-47-21-55 52c-55 52-123 91-160 90-11 0-52-10-91-23zm181-97c25-23 45-47 45-53-1-6-40-36-88-66-255-161-424-344-533-580-22-47-43-91-47-98-4-8-25-20-46-27-21-8-55-29-75-49l-36-35-32 25c-43 33-57 85-42 155 65 308 518 765 762 768 42 1 52-4 92-40zm160-239c-18-19-17-20 1-20 26 0 137-29 146-38 4-4-59-7-140-7-135 0-154-2-228-28-45-15-107-43-138-62-31-18-56-30-56-25 0 19 208 189 233 190 4 0 3-9-3-19-19-36-10-42 33-20 51 27 114 47 146 48 23 1 24 0 6-19zm302-250c29-27 40-69 47-184 4-55 12-106 18-113s32-19 58-27c65-19 126-52 134-71 23-60-29-128-138-179-109-52-199-70-353-68l-132 1-26-30c-32-39-34-104-4-143 38-48 94-69 196-74 154-7 311 41 402 123 50 46 47 55-7 21-158-99-404-135-514-74-24 13-44 31-46 41-3 14 2 16 30 9 56-12 246-9 260 5 10 10-8 13-87 13-86 0-137 7-192 25-7 2-10 11-7 20 5 12 29 15 139 15 188 0 311 29 428 101 26 16 49 29 52 29s10-21 16-46c9-34 18-48 37-55 23-9 24-13 20-68-15-211-264-394-518-378-161 9-273 75-332 194-30 61-33 76-33 153 1 91 20 150 70 216 14 18 25 39 25 46s-20 38-45 68c-90 109-96 227-16 313 49 54 75 61 207 58l120-2 60 40c66 45 100 51 131 21zM471 977c117-78 131-303 24-373-35-23-112-21-161 4-79 41-124 111-124 196 0 66 12 101 48 140 56 59 152 75 213 33z"
        transform="matrix(.1 0 0 -.1 0 200)"
    ></path>
    <path
        d="M1360 1220c-11-21 1-95 19-113 17-17 42-17 48-1 9 23-7 102-23 119-20 20-31 19-44-5zM1013 1086c-33-28-27-41 11-26 36 13 99 13 131-2 37-17 44 0 12 28-39 34-115 34-154 0zM1397 1044c-12-12-8-41 7-53 17-14 39 9 34 36-3 18-29 29-41 17zM1091 1027c-34-17-42-42-10-31 13 5 41 9 62 8 41 0 48 10 18 26-25 13-40 13-70-3zM1294 995c-7-18 13-45 33-45 23 0 28 31 8 46-24 18-34 18-41-1zM325 908c-30-27-47-79-33-99 5-8 11-10 14-4 22 50 32 60 61 63 45 4 67-29 51-80-20-66 17-121 65-96 20 10 23 30 5 27-35-4-40 1-33 34 3 17 9 53 12 78 4 42 2 48-27 72-39 33-80 35-115 5z"
        transform="matrix(.1 0 0 -.1 0 200)"
    ></path>
</svg>