<?xml version="1.0" encoding="utf-8"?>
<!-- Generator: Adobe Illustrator 25.0.1, SVG Export Plug-In . SVG Version: 6.00 Build 0)  -->
<svg version="1.1" id="Layer_1" xmlns="http://www.w3.org/2000/svg" xmlns:xlink="http://www.w3.org/1999/xlink" x="0px" y="0px"
	 viewBox="0 0 215.6 200" width="24px" style="enable-background:new 0 0 215.6 200;" xml:space="preserve">
<style type="text/css">
	.st0{fill:#FFFFFF;}
	.st1{fill:#394257;}
	.st2{fill:#E16053;}
	.st3{fill:#969696;}
</style>
<g>
	<g>
		<g>
			<path class="st0" d="M161.8,103.5c0,9.4-7.6,17-17,17H72.3c-9.4,0-17-7.6-17-17V32.8c0-9.4,7.6-17,17-17h72.5c9.4,0,17,7.6,17,17
				L161.8,103.5L161.8,103.5z"/>
		</g>
	</g>
	<g>
		<g>
			<path class="st1" d="M74,13.1c0,0,7.1-23.3,16,0.3C74.4,13.1,74,13.1,74,13.1z"/>
		</g>
	</g>
	<g>
		<g>
			<path class="st1" d="M126.7,13.1c0,0,7.1-23.3,16,0.3C127.1,13.1,126.7,13.1,126.7,13.1z"/>
		</g>
	</g>
	<g>
		<g>
			<g>
				<path class="st0" d="M140.8,141c0.4,1.4-0.3,3-1.8,3.4l-49.2,15.6c-1.4,0.4-3-0.3-3.4-1.8l-10.3-32.4c-0.5-1.4,0.3-3,1.8-3.4
					l49.2-15.6c1.4-0.5,3,0.3,3.4,1.8L140.8,141z"/>
			</g>
			<g>
				<path class="st1" d="M89.3,163.2c-2.3,0-4.2-1.4-4.9-3.6l-10.3-32.4c-0.9-2.7,0.6-5.6,3.3-6.5l49.2-15.6
					c2.6-0.8,5.6,0.7,6.5,3.3l10.3,32.4c0.9,2.7-0.6,5.6-3.3,6.5l-49.2,15.6C90.3,163.1,89.8,163.2,89.3,163.2z M128.2,109.7
					l-49.3,15.7c-0.1,0-0.2,0.2-0.2,0.4L89,158.1c0.1,0.2,0.3,0.2,0.4,0.2l49.2-15.6c0.1,0,0.2-0.2,0.2-0.4l-10.3-32.4
					C128.4,109.8,128.3,109.7,128.2,109.7z"/>
			</g>
		</g>
		<g>
			<g>
				<path class="st0" d="M77.8,123.2c-1.2,0.6-1.8,2-1.4,3.3l10.3,32.4c0.2,0.5,0.5,1,0.9,1.3l13.4-26L77.8,123.2z"/>
			</g>
			<g>
				<path class="st1" d="M89,162.5l-3-0.6c-0.8-0.6-1.3-1.5-1.7-2.4l-10.3-32.4c-0.8-2.4,0.4-5.1,2.7-6.2l1-0.5l26.4,12.5L89,162.5z
					 M78.9,126.4l8.9,27.9l9.8-19.1L78.9,126.4z"/>
			</g>
		</g>
		<g>
			<g>
				<path class="st0" d="M141,143.3c0.2-0.6,0.3-1.2,0.1-1.8l-10.2-32.2c-0.5-1.4-1.9-2-3.4-1.6l-0.3,0.1l-13,21.9L141,143.3z"/>
			</g>
			<g>
				<path class="st1" d="M140.9,146l-30.2-15.3l14.8-24.9l1.2-0.4c2.8-0.9,5.6,0.6,6.4,3.2l10.2,32.2c0.3,1.1,0.3,2.3-0.1,3.4
					L140.9,146z M117.6,128.8l20.1,10.2l-9.1-28.6L117.6,128.8z"/>
			</g>
		</g>
		<g>
			<g>
				<path class="st0" d="M129.3,107.5c-0.6-0.3-1.3-0.3-1.9-0.1l-49.2,15.6c-0.8,0.2-1.3,0.8-1.6,1.5l33.9,17.1L129.3,107.5z"/>
			</g>
			<g>
				<path class="st1" d="M111.4,144.8L74.1,126l0.2-2.5c0.6-1.3,1.7-2.3,3.1-2.8l49.2-15.6c1.2-0.4,2.5-0.3,3.7,0.2l2.4,1.1
					L111.4,144.8z M81.8,124.5l27.6,13.9l15.3-27.5L81.8,124.5z"/>
			</g>
		</g>
	</g>
	<g>
		<g>
			<path class="st1" d="M108.1,77.5c-24.8,0-46,6.5-56.6,16.6c0,13.1,10.4,27,23.5,27h66.2c13.1,0,23.3-14.1,23.3-27.3
				C153.9,83.7,132.9,77.5,108.1,77.5z"/>
		</g>
	</g>
	<g>
		<g>
			<path class="st1" d="M153.9,15.5l40.3,23.3c0,0-18,14.4-32.3,4.1c-0.8-0.6,0.4-16.9-0.3-17.6L153.9,15.5z"/>
		</g>
	</g>
	<g>
		<g>
			<path class="st1" d="M61.7,15.5L21.4,38.8c0,0,18,14.4,32.3,4.1c0.8-0.6-0.4-16.9,0.3-17.6L61.7,15.5z"/>
		</g>
	</g>
	<g>
		<g>
			<path class="st2" d="M108.1,82.4c-24.8,0-45.3,6.8-55.9,16.2c0,12.3,9.7,22.5,22.8,22.5h66.2c13.1,0,22.9-9.8,23-22.1
				C153.5,89.6,132.9,82.4,108.1,82.4z"/>
		</g>
	</g>
	<g>
		<g>
			<path class="st1" d="M103.5,58.4c-0.7,2.8-2.7,4.7-4.4,4.3c-1.7-0.4-2.6-3-1.9-5.8c0.7-2.8,2.7-4.7,4.4-4.3
				C103.4,53,104.2,55.7,103.5,58.4z"/>
		</g>
	</g>
	<g>
		<g>
			<path class="st1" d="M119.8,56.8c0.8,2.8,0,5.4-1.7,5.9c-1.7,0.5-3.7-1.3-4.5-4.1c-0.8-2.8,0-5.4,1.7-5.9
				C116.9,52.2,119,54,119.8,56.8z"/>
		</g>
	</g>
	<g>
		<g>
			<path class="st1" d="M90.3,102.8c2.3,4,2.2,8.4-0.3,9.8c-2.5,1.5-6.4-0.6-8.7-4.6c-2.3-4-2.2-8.4,0.3-9.8
				C84.1,96.7,88,98.8,90.3,102.8z"/>
		</g>
	</g>
	<g>
		<g>
			<path class="st1" d="M128.6,103c-2.3,4-2.2,8.4,0.3,9.8c2.5,1.5,6.4-0.6,8.7-4.6c2.3-4,2.2-8.4-0.3-9.8
				C134.8,97,131,99,128.6,103z"/>
		</g>
	</g>
	<g>
		<g>
			<g>
				<path class="st1" d="M164.4,35.2c0-13.2-10.7-23.9-23.9-23.9H75c-13.2,0-23.9,10.5-23.9,23.7v66.2c0,13.2,10.7,24.3,23.9,24.3
					h66.2c13.2,0,23.9-10.9,23.9-24.1L164.4,35.2z M160.3,102.7c0,9.8-8,17.8-17.8,17.8H73.8c-9.8,0-17.8-8-17.8-17.8V34.1
					c0-9.8,8-17.8,17.8-17.8h68.6c9.8,0,17.8,8,17.8,17.8V102.7z"/>
			</g>
		</g>
	</g>
</g>
</svg>
