<?xml version="1.0" ?>
<!DOCTYPE svg  PUBLIC '-//W3C//DTD SVG 1.1//EN'  'http://www.w3.org/Graphics/SVG/1.1/DTD/svg11.dtd'>
<!-- Uploaded to: SVG Repo, www.svgrepo.com, Transformed by: SVG Repo Mixer Tools -->
<svg fill="#000000" width="800px" height="800px" viewBox="0 0 48 48" enable-background="new 0 0 48 48" id="Layer_3" version="1.1" xml:space="preserve" xmlns="http://www.w3.org/2000/svg" xmlns:xlink="http://www.w3.org/1999/xlink">
<g>
<path d="M38,4V0h-4v4H14V0h-4v4H0v11.9v4V48h48V19.9v-4V4H38z M44,44H4V19.9h40V44z M4,15.9V8h6v4h4V8h20v4h4V8h6v7.9H4z"/>
<rect height="6" width="6" x="7.5" y="24"/>
<rect height="6" width="6" x="16.667" y="24"/>
<rect height="6" width="6" x="25.583" y="24"/>
<rect height="6" width="6" x="34.5" y="24"/>
<rect height="6" width="6" x="7.5" y="33"/>
<rect height="6" width="6" x="16.667" y="33"/>
<rect height="6" width="6" x="25.583" y="33"/>
<rect height="6" width="6" x="34.5" y="33"/>
</g>
</svg>