<svg
	version="1.0"
	xmlns="http://www.w3.org/2000/svg"
	width="256.000000pt"
	height="256.000000pt"
	viewBox="0 0 256.000000 256.000000"
	preserveAspectRatio="xMidYMid meet"
>
	<g
		transform="translate(0.000000,256.000000) scale(0.100000,-0.100000)"
		fill="#9b51e0"
		stroke="none"
	>
		<path
			d="M0 1280 l0 -1280 1280 0 1280 0 0 1280 0 1280 -1280 0 -1280 0 0
			-1280z m1456 666 c29 -7 78 -28 111 -45 67 -36 183 -146 168 -160 -26 -23
			-319 -231 -326 -231 -5 0 -9 5 -9 10 0 6 -11 22 -25 35 -30 31 -83 33 -116 6
			-22 -18 -24 -27 -27 -140 l-4 -121 66 0 66 0 0 -185 0 -185 -65 0 -65 0 0
			-170 0 -170 -205 0 -205 0 0 448 c0 355 3 461 15 517 39 186 182 342 356 389
			69 19 199 20 265 2z"
		/>
	</g>
</svg>