<svg 
    xmlns:x="http://ns.adobe.com/Extensibility/1.0/" 
    xmlns:i="http://ns.adobe.com/AdobeIllustrator/10.0/" 
    xmlns:graph="http://ns.adobe.com/Graphs/1.0/" 
    xmlns="http://www.w3.org/2000/svg" 
    xmlns:xlink="http://www.w3.org/1999/xlink" 
    version="1.1" x="0px" y="0px" 
    viewBox="0 0 100 100" style="enable-background:new 0 0 100 100;" xml:space="preserve">
    <switch>
    <g i:extraneous="self"><g><path d="M63.2,23.9c-1.4-1.4-3.6-1.4-5,0c-1.4,1.4-1.4,3.6,0,5l5,5H28.3c-1.9,0-3.5,1.6-3.5,3.5c0,1.9,1.6,3.5,3.5,3.5h34.9l-5,5     c-1.4,1.4-1.4,3.6,0,5c0.7,0.7,1.6,1,2.5,1s1.8-0.3,2.5-1l11-11c0.7-0.7,1-1.6,1-2.5c0-0.9-0.4-1.8-1-2.5L63.2,23.9z"/>
    <path d="M71.7,59.1H36.8l5-5c1.4-1.4,1.4-3.6,0-5c-1.4-1.4-3.6-1.4-5,0l-11,11c-1.4,1.4-1.4,3.6,0,5l11,11c0.7,0.7,1.6,1,2.5,1     c0.9,0,1.8-0.3,2.5-1c1.4-1.4,1.4-3.6,0-5l-5-5h34.9c1.9,0,3.5-1.6,3.5-3.5C75.2,60.7,73.7,59.1,71.7,59.1z"/>
    <path d="M50,2.5C23.8,2.5,2.5,23.8,2.5,50S23.8,97.5,50,97.5S97.5,76.2,97.5,50S76.2,2.5,50,2.5z M50,90.5     C27.7,90.5,9.5,72.3,9.5,50S27.7,9.5,50,9.5S90.5,27.7,90.5,50S72.3,90.5,50,90.5z"/>
    </g>
    </g>
    </switch>
</svg>